C:\Users\u0150099\Documents\master_thesis\3dpredictsim\Polynomials\Fal_s1_mtp_sd\dummy_motion.mot
nRows=5
nColumns=32

name C:\Users\u0150099\Documents\master_thesis\3dpredictsim\Polynomials\Fal_s1_mtp_sd\dummy_motion.mot
datacolumns 32
datarows 5
range 25.0100000000 25.0500000000
endheader
time	pelvis_tilt	pelvis_list	pelvis_rotation	pelvis_tx	pelvis_ty	pelvis_tz	hip_flexion_r	hip_adduction_r	hip_rotation_r	knee_angle_r	ankle_angle_r	subtalar_angle_r	mtp_angle_r	hip_flexion_l	hip_adduction_l	hip_rotation_l	knee_angle_l	ankle_angle_l	subtalar_angle_l	mtp_angle_l	lumbar_extension	lumbar_bending	lumbar_rotation	arm_flex_r	arm_add_r	arm_rot_r	elbow_flex_r	arm_flex_l	arm_add_l	arm_rot_l	elbow_flex_l
       25.0100000000	        0.0000000000	        0.0000000000	        0.0000000000	        0.0000000000	        0.0000000000	        0.0000000000	      -36.3172866048	      -11.8386367052	        3.4939120907	      -19.2417221280	       -8.0418480146	      -19.9479470382	        6.9101279834	        0.0000000000	        0.0000000000	        0.0000000000	        0.0000000000	        0.0000000000	        0.0000000000	        0.0000000000	      -27.9475614197	       -6.7053323942	      -20.5941724483	        0.0000000000	        0.0000000000	        0.0000000000	        0.0000000000	        0.0000000000	        0.0000000000	        0.0000000000	        0.0000000000	
       25.0200000000	        0.0000000000	        0.0000000000	        0.0000000000	        0.0000000000	        0.0000000000	        0.0000000000	      -46.7988452100	      -25.8639283633	      -10.0966365141	      -66.0120516897	       27.0707069646	      -28.7827198734	      -24.8453291537	        0.0000000000	        0.0000000000	        0.0000000000	        0.0000000000	        0.0000000000	        0.0000000000	        0.0000000000	        3.8268497611	       16.5051197267	       13.0610254669	        0.0000000000	        0.0000000000	        0.0000000000	        0.0000000000	        0.0000000000	        0.0000000000	        0.0000000000	        0.0000000000	
       25.0300000000	        0.0000000000	        0.0000000000	        0.0000000000	        0.0000000000	        0.0000000000	        0.0000000000	       -2.7617461850	      -19.1348139579	       12.0037327070	      -40.2205190811	       29.6069015637	       -4.8122497407	      -22.6029398898	        0.0000000000	        0.0000000000	        0.0000000000	        0.0000000000	        0.0000000000	        0.0000000000	        0.0000000000	        4.1985672491	       28.5135113480	       13.3397544293	        0.0000000000	        0.0000000000	        0.0000000000	        0.0000000000	        0.0000000000	        0.0000000000	        0.0000000000	        0.0000000000	
       25.0400000000	        0.0000000000	        0.0000000000	        0.0000000000	        0.0000000000	        0.0000000000	        0.0000000000	       12.2386429135	      -22.8881463833	       -8.8870047495	      -43.0247511129	      -22.6875991736	       -4.6445062963	       12.2530309625	        0.0000000000	        0.0000000000	        0.0000000000	        0.0000000000	        0.0000000000	        0.0000000000	        0.0000000000	       -1.0940370587	       -7.2492837316	       -8.8161366036	        0.0000000000	        0.0000000000	        0.0000000000	        0.0000000000	        0.0000000000	        0.0000000000	        0.0000000000	        0.0000000000	
       25.0500000000	        0.0000000000	        0.0000000000	        0.0000000000	        0.0000000000	        0.0000000000	        0.0000000000	       43.2155023407	      -26.5988670802	      -19.3130150802	      -32.2819453708	       -1.8720594253	       20.8091264103	      -14.3156176968	        0.0000000000	        0.0000000000	        0.0000000000	        0.0000000000	        0.0000000000	        0.0000000000	        0.0000000000	       11.2483294429	       10.9384065923	        0.9876102097	        0.0000000000	        0.0000000000	        0.0000000000	        0.0000000000	        0.0000000000	        0.0000000000	        0.0000000000	        0.0000000000	
